# xmcd
#
# Track frame offsets:
#	150
#	11738
#	23689
#	33532
#	46112
#	58164
#	70004
#	81887
#	95252
#	106989
#	122664
#	134558
#	147142
#	163241
#
# Disc length: 2327 seconds
#
# Revision: 0
# Processed by: cddbd v1.5.2PL0 Copyright (c) Steve Scherf et al.
# Submitted via: audiograbber 1.83.01
#
DISCID=ba09150e
DTITLE=The Rocky  Mountains Ol´ Time Stompers - Western
DYEAR=1900
DGENRE=Country
TTITLE0=Oh ! Susannah
TTITLE1=De Cramtown Races
TTITLE2=Carry Me Back To Old Virginy
TTITLE3=Ring De Banjo
TTITLE4=Deep In The Heart Of Texas
TTITLE5=Dance With The Dolly
TTITLE6=Pecos Bill
TTITLE7=Polly Wolly Doodle
TTITLE8=Little Brown Jug
TTITLE9=Red River Valley
TTITLE10=Stephen Foster Melodies
TTITLE11=Ol´ Mississipi
TTITLE12=Down In The Valley
TTITLE13=Mule Train
EXTD=
EXTT0=
EXTT1=
EXTT2=
EXTT3=
EXTT4=
EXTT5=
EXTT6=
EXTT7=
EXTT8=
EXTT9=
EXTT10=
EXTT11=
EXTT12=
EXTT13=
PLAYORDER=
